<svg width="17" height="17" viewBox="0 0 17 17" fill="none" xmlns="http://www.w3.org/2000/svg">
<path d="M14.25 12.375C14.25 12.7065 14.1183 13.0245 13.8839 13.2589C13.6495 13.4933 13.3315 13.625 13 13.625H3C2.66848 13.625 2.35054 13.4933 2.11612 13.2589C1.8817 13.0245 1.75 12.7065 1.75 12.375V3.625C1.75 3.29348 1.8817 2.97554 2.11612 2.74112C2.35054 2.5067 2.66848 2.375 3 2.375H6.125L7.375 4.25H13C13.3315 4.25 13.6495 4.3817 13.8839 4.61612C14.1183 4.85054 14.25 5.16848 14.25 5.5V12.375Z" stroke="#7D8087" stroke-linecap="round" stroke-linejoin="round"/>
<g clip-path="url(#clip0_2869_18745)">
<rect x="8" y="8" width="8" height="8" rx="4" fill="white"/>
<path d="M12.0013 15.3334C13.8423 15.3334 15.3346 13.841 15.3346 12.0001C15.3346 10.1591 13.8423 8.66675 12.0013 8.66675C10.1604 8.66675 8.66797 10.1591 8.66797 12.0001C8.66797 13.841 10.1604 15.3334 12.0013 15.3334Z" stroke="#7D8087" stroke-linecap="round" stroke-linejoin="round"/>
<path d="M12 10.6667V13.3334" stroke="#7D8087" stroke-linecap="round" stroke-linejoin="round"/>
<path d="M10.668 12H13.3346" stroke="#7D8087" stroke-linecap="round" stroke-linejoin="round"/>
</g>
<rect x="8" y="8" width="8" height="8" rx="4" stroke="white" stroke-width="0.5"/>
<defs>
<clipPath id="clip0_2869_18745">
<rect x="8" y="8" width="8" height="8" rx="4" fill="white"/>
</clipPath>
</defs>
</svg>
