<svg xmlns="http://www.w3.org/2000/svg" width="24" height="25" viewBox="0 0 24 25" fill="none">
  <mask id="mask0_619_597" style="mask-type:alpha" maskUnits="userSpaceOnUse" x="0" y="0" width="24" height="25">
    <rect y="0.0876465" width="24" height="24" fill="#D9D9D9"/>
  </mask>
  <g mask="url(#mask0_619_597)">
    <path d="M7.82505 13.0877L12.725 17.9877C12.925 18.1877 13.0209 18.421 13.0125 18.6877C13.0042 18.9544 12.9 19.1877 12.7 19.3877C12.5 19.571 12.2667 19.6669 12 19.6752C11.7334 19.6835 11.5 19.5877 11.3 19.3877L4.70005 12.7877C4.60005 12.6877 4.52922 12.5794 4.48755 12.4627C4.44588 12.346 4.42505 12.221 4.42505 12.0877C4.42505 11.9544 4.44588 11.8294 4.48755 11.7127C4.52922 11.596 4.60005 11.4877 4.70005 11.3877L11.3 4.7877C11.4834 4.60436 11.7125 4.5127 11.9875 4.5127C12.2625 4.5127 12.5 4.60436 12.7 4.7877C12.9 4.9877 13 5.2252 13 5.5002C13 5.7752 12.9 6.0127 12.7 6.2127L7.82505 11.0877H19C19.2834 11.0877 19.5209 11.1835 19.7125 11.3752C19.9042 11.5669 20 11.8044 20 12.0877C20 12.371 19.9042 12.6085 19.7125 12.8002C19.5209 12.9919 19.2834 13.0877 19 13.0877H7.82505Z" fill="#1C1B1F"/>
  </g>
</svg>