<svg width="17" height="16" viewBox="0 0 17 16" fill="none" xmlns="http://www.w3.org/2000/svg">
<path d="M14.25 12.375C14.25 12.7065 14.1183 13.0245 13.8839 13.2589C13.6495 13.4933 13.3315 13.625 13 13.625H3C2.66848 13.625 2.35054 13.4933 2.11612 13.2589C1.8817 13.0245 1.75 12.7065 1.75 12.375V3.625C1.75 3.29348 1.8817 2.97554 2.11612 2.74112C2.35054 2.5067 2.66848 2.375 3 2.375H6.125L7.375 4.25H13C13.3315 4.25 13.6495 4.3817 13.8839 4.61612C14.1183 4.85054 14.25 5.16848 14.25 5.5V12.375Z" stroke="#7D8087" stroke-linecap="round" stroke-linejoin="round"/>
<g clip-path="url(#clip0_1847_10709)">
<rect x="8" y="7" width="9" height="9" rx="4.5" fill="white"/>
<path d="M15.995 10.5813L15.2863 10.345L15.62 9.6775C15.6538 9.60763 15.6652 9.52899 15.6524 9.45242C15.6396 9.37584 15.6034 9.30512 15.5488 9.25L14.75 8.45125C14.6946 8.39578 14.6232 8.35908 14.5458 8.3463C14.4685 8.33352 14.3891 8.3453 14.3188 8.38L13.6513 8.71375L13.415 8.005C13.3901 7.93112 13.3427 7.86686 13.2795 7.82116C13.2163 7.77545 13.1405 7.75058 13.0625 7.75H11.9375C11.8589 7.7498 11.7822 7.77431 11.7183 7.82007C11.6543 7.86583 11.6064 7.93052 11.5813 8.005L11.345 8.71375L10.6775 8.38C10.6076 8.34617 10.529 8.33485 10.4524 8.34761C10.3758 8.36038 10.3051 8.39659 10.25 8.45125L9.45125 9.25C9.39578 9.30541 9.35908 9.37682 9.3463 9.45417C9.33352 9.53153 9.3453 9.61094 9.38 9.68125L9.71375 10.3488L9.005 10.585C8.93112 10.61 8.86686 10.6573 8.82116 10.7205C8.77545 10.7837 8.75058 10.8595 8.75 10.9375V12.0625C8.7498 12.1411 8.77431 12.2178 8.82007 12.2817C8.86583 12.3457 8.93052 12.3936 9.005 12.4188L9.71375 12.655L9.38 13.3225C9.34617 13.3924 9.33485 13.471 9.34761 13.5476C9.36038 13.6242 9.39659 13.6949 9.45125 13.75L10.25 14.5488C10.3054 14.6042 10.3768 14.6409 10.4542 14.6537C10.5315 14.6665 10.6109 14.6547 10.6813 14.62L11.3488 14.2863L11.585 14.995C11.6102 15.0695 11.6581 15.1342 11.722 15.1799C11.7859 15.2257 11.8626 15.2502 11.9413 15.25H13.0663C13.1449 15.2502 13.2216 15.2257 13.2855 15.1799C13.3494 15.1342 13.3973 15.0695 13.4225 14.995L13.6588 14.2863L14.3263 14.62C14.3957 14.653 14.4736 14.6638 14.5493 14.6511C14.6251 14.6383 14.6952 14.6026 14.75 14.5488L15.5488 13.75C15.6042 13.6946 15.6409 13.6232 15.6537 13.5458C15.6665 13.4685 15.6547 13.3891 15.62 13.3188L15.2863 12.6513L15.995 12.415C16.0689 12.3901 16.1331 12.3427 16.1788 12.2795C16.2245 12.2163 16.2494 12.1405 16.25 12.0625V10.9375C16.2502 10.8589 16.2257 10.7822 16.1799 10.7183C16.1342 10.6543 16.0695 10.6064 15.995 10.5813ZM15.5 11.7925L15.05 11.9425C14.9465 11.9761 14.8516 12.0317 14.7718 12.1057C14.692 12.1796 14.6292 12.27 14.5878 12.3706C14.5464 12.4712 14.5274 12.5796 14.5321 12.6883C14.5368 12.797 14.5651 12.9033 14.615 13L14.8288 13.4275L14.4163 13.84L14 13.615C13.9038 13.5671 13.7985 13.5404 13.6911 13.5367C13.5837 13.5331 13.4768 13.5525 13.3776 13.5938C13.2784 13.635 13.1892 13.6971 13.1161 13.7758C13.043 13.8545 12.9876 13.948 12.9538 14.05L12.8038 14.5H12.2075L12.0575 14.05C12.0239 13.9465 11.9683 13.8516 11.8943 13.7718C11.8204 13.692 11.73 13.6292 11.6294 13.5878C11.5288 13.5464 11.4204 13.5274 11.3117 13.5321C11.203 13.5368 11.0967 13.5651 11 13.615L10.5725 13.8288L10.16 13.4163L10.385 13C10.4349 12.9033 10.4632 12.797 10.4679 12.6883C10.4726 12.5796 10.4536 12.4712 10.4122 12.3706C10.3708 12.27 10.308 12.1796 10.2282 12.1057C10.1484 12.0317 10.0535 11.9761 9.95 11.9425L9.5 11.7925V11.2075L9.95 11.0575C10.0535 11.0239 10.1484 10.9683 10.2282 10.8943C10.308 10.8204 10.3708 10.73 10.4122 10.6294C10.4536 10.5288 10.4726 10.4204 10.4679 10.3117C10.4632 10.203 10.4349 10.0967 10.385 10L10.1713 9.58375L10.5838 9.17125L11 9.385C11.0967 9.43491 11.203 9.4632 11.3117 9.46789C11.4204 9.47259 11.5288 9.45359 11.6294 9.4122C11.73 9.37082 11.8204 9.30804 11.8943 9.22823C11.9683 9.14842 12.0239 9.05348 12.0575 8.95L12.2075 8.5H12.7925L12.9425 8.95C12.9761 9.05348 13.0317 9.14842 13.1057 9.22823C13.1796 9.30804 13.27 9.37082 13.3706 9.4122C13.4712 9.45359 13.5796 9.47259 13.6883 9.46789C13.797 9.4632 13.9033 9.43491 14 9.385L14.4275 9.17125L14.84 9.58375L14.615 10C14.5671 10.0962 14.5404 10.2015 14.5367 10.3089C14.5331 10.4163 14.5525 10.5232 14.5938 10.6224C14.635 10.7216 14.6971 10.8108 14.7758 10.8839C14.8545 10.957 14.948 11.0124 15.05 11.0463L15.5 11.1963V11.7925ZM12.5 10C12.2033 10 11.9133 10.088 11.6666 10.2528C11.42 10.4176 11.2277 10.6519 11.1142 10.926C11.0007 11.2001 10.9709 11.5017 11.0288 11.7926C11.0867 12.0836 11.2296 12.3509 11.4393 12.5607C11.6491 12.7704 11.9164 12.9133 12.2074 12.9712C12.4983 13.0291 12.7999 12.9994 13.074 12.8858C13.3481 12.7723 13.5824 12.58 13.7472 12.3334C13.912 12.0867 14 11.7967 14 11.5C14 11.1022 13.842 10.7206 13.5607 10.4393C13.2794 10.158 12.8978 10 12.5 10ZM12.5 12.25C12.3517 12.25 12.2067 12.206 12.0833 12.1236C11.96 12.0412 11.8639 11.9241 11.8071 11.787C11.7503 11.65 11.7355 11.4992 11.7644 11.3537C11.7934 11.2082 11.8648 11.0746 11.9697 10.9697C12.0746 10.8648 12.2082 10.7934 12.3537 10.7644C12.4992 10.7355 12.65 10.7503 12.787 10.8071C12.9241 10.8639 13.0412 10.96 13.1236 11.0833C13.206 11.2067 13.25 11.3517 13.25 11.5C13.25 11.6989 13.171 11.8897 13.0303 12.0303C12.8897 12.171 12.6989 12.25 12.5 12.25Z" fill="#7D8087"/>
</g>
<defs>
<clipPath id="clip0_1847_10709">
<rect x="8" y="7" width="9" height="9" rx="4.5" fill="white"/>
</clipPath>
</defs>
</svg>
