<svg xmlns="http://www.w3.org/2000/svg" width="15" height="14" viewBox="0 0 15 14" fill="none">
  <g clip-path="url(#clip0_803_1496)">
    <path d="M13.0695 11.0833C13.0695 11.3928 12.9466 11.6895 12.7278 11.9083C12.509 12.1271 12.2123 12.25 11.9028 12.25H2.5695C2.26008 12.25 1.96333 12.1271 1.74454 11.9083C1.52575 11.6895 1.40283 11.3928 1.40283 11.0833V2.91667C1.40283 2.60725 1.52575 2.3105 1.74454 2.09171C1.96333 1.87292 2.26008 1.75 2.5695 1.75H5.48617L6.65283 3.5H11.9028C12.2123 3.5 12.509 3.62292 12.7278 3.84171C12.9466 4.0605 13.0695 4.35725 13.0695 4.66667V11.0833Z" stroke="#7D8087" stroke-width="1.16667" stroke-linecap="round" stroke-linejoin="round"/>
  </g>
  <defs>
    <clipPath id="clip0_803_1496">
      <rect width="14" height="14" fill="white" transform="translate(0.236328)"/>
    </clipPath>
  </defs>
</svg>