<svg xmlns="http://www.w3.org/2000/svg" width="17" height="18" viewBox="0 0 17 18" fill="currentColor">
  <path d="M14.9609 8.90059C14.9609 9.10944 14.878 9.30975 14.7303 9.45743C14.5826 9.60512 14.3823 9.68809 14.1734 9.68809H2.62344C2.41458 9.68809 2.21428 9.60512 2.06659 9.45743C1.91891 9.30975 1.83594 9.10944 1.83594 8.90059C1.83594 8.69173 1.91891 8.49142 2.06659 8.34374C2.21428 8.19605 2.41458 8.11309 2.62344 8.11309H14.1734C14.3823 8.11309 14.5826 8.19605 14.7303 8.34374C14.878 8.49142 14.9609 8.69173 14.9609 8.90059ZM2.62344 5.48809H14.1734C14.3823 5.48809 14.5826 5.40512 14.7303 5.25743C14.878 5.10975 14.9609 4.90944 14.9609 4.70059C14.9609 4.49173 14.878 4.29142 14.7303 4.14374C14.5826 3.99605 14.3823 3.91309 14.1734 3.91309H2.62344C2.41458 3.91309 2.21428 3.99605 2.06659 4.14374C1.91891 4.29142 1.83594 4.49173 1.83594 4.70059C1.83594 4.90944 1.91891 5.10975 2.06659 5.25743C2.21428 5.40512 2.41458 5.48809 2.62344 5.48809ZM14.1734 12.3131H2.62344C2.41458 12.3131 2.21428 12.3961 2.06659 12.5437C1.91891 12.6914 1.83594 12.8917 1.83594 13.1006C1.83594 13.3094 1.91891 13.5097 2.06659 13.6574C2.21428 13.8051 2.41458 13.8881 2.62344 13.8881H14.1734C14.3823 13.8881 14.5826 13.8051 14.7303 13.6574C14.878 13.5097 14.9609 13.3094 14.9609 13.1006C14.9609 12.8917 14.878 12.6914 14.7303 12.5437C14.5826 12.3961 14.3823 12.3131 14.1734 12.3131Z" fill="#989AA0"/>
</svg>