<svg width="18" height="18" viewBox="0 0 18 18" fill="currentColor" xmlns="http://www.w3.org/2000/svg">
<path d="M7.866 0.402072C8.18668 0.141959 8.58706 0 9 0C9.41294 0 9.81332 0.141959 10.134 0.402072L16.9992 5.96329C17.3114 6.21605 17.5632 6.53527 17.7363 6.89768C17.9095 7.26009 17.9995 7.65656 18 8.0582V16.2003C18 16.6776 17.8104 17.1353 17.4728 17.4729C17.1352 17.8104 16.6774 18 16.2 18H13.5C13.0226 18 12.5648 17.8104 12.2272 17.4729C11.8896 17.1353 11.7 16.6776 11.7 16.2003V11.7009C11.7 11.4622 11.6052 11.2333 11.4364 11.0646C11.2676 10.8958 11.0387 10.801 10.8 10.801H7.2C6.96131 10.801 6.73239 10.8958 6.5636 11.0646C6.39482 11.2333 6.3 11.4622 6.3 11.7009V16.2003C6.3 16.6776 6.11036 17.1353 5.77279 17.4729C5.43523 17.8104 4.97739 18 4.5 18H1.8C1.32261 18 0.864773 17.8104 0.527208 17.4729C0.189642 17.1353 5.28461e-08 16.6776 5.28461e-08 16.2003V8.06C-7.95362e-05 7.65776 0.0897409 7.26058 0.262895 6.89751C0.436049 6.53443 0.688161 6.21463 1.0008 5.96149L7.866 0.402072Z"/>
</svg>
