<svg width="16" height="17" viewBox="0 0 16 17" fill="currentColor" xmlns="http://www.w3.org/2000/svg">
<path fill-rule="evenodd" clip-rule="evenodd" d="M15.4607 5.55752C15.4589 5.70328 15.3995 5.84241 15.2956 5.94457C15.1916 6.04673 15.0514 6.10362 14.9057 6.10282H11.2042C11.0583 6.10382 10.9179 6.04702 10.8138 5.94484C10.7097 5.84266 10.6502 5.70341 10.6484 5.55752C10.6484 5.25615 10.8976 5.01147 11.2042 5.01147H14.9057C15.2115 5.01147 15.4607 5.25615 15.4607 5.55752ZM15.4607 8.83156C15.4589 8.97732 15.3995 9.11645 15.2956 9.21861C15.1916 9.32077 15.0514 9.37766 14.9057 9.37686H11.9442C11.7984 9.37766 11.6583 9.32077 11.5543 9.21861C11.4503 9.11645 11.391 8.97732 11.3892 8.83156C11.3892 8.53019 11.6376 8.28551 11.9442 8.28551H14.9057C15.2115 8.28551 15.4607 8.53019 15.4607 8.83156Z" fill="currentColor"/>
<path d="M8.43667 5.45414L8.7082 5.72045C9.84057 6.83343 10.4075 7.39066 10.4068 7.9934C10.4068 8.19108 10.3657 8.38578 10.2867 8.56705C10.0442 9.1213 9.29975 9.41223 7.81155 9.99482L7.70338 10.0366C7.28191 10.2015 7.07081 10.2843 6.90073 10.417C6.77249 10.5177 6.66161 10.6386 6.5725 10.7751C6.45538 10.9541 6.39347 11.1697 6.26889 11.5986C6.07643 12.2648 5.98095 12.5982 5.77581 12.7452C5.62271 12.8556 5.43344 12.9038 5.24618 12.8802C4.99404 12.8504 4.74489 12.605 4.24658 12.1156L3.48122 11.3622L1.48726 13.3226C1.38221 13.425 1.24126 13.4824 1.09451 13.4824C0.947753 13.4824 0.80681 13.425 0.701758 13.3226C0.650262 13.2723 0.609339 13.2123 0.581398 13.146C0.553457 13.0797 0.539062 13.0085 0.539062 12.9365C0.539062 12.8646 0.553457 12.7934 0.581398 12.7271C0.609339 12.6608 0.650262 12.6007 0.701758 12.5505L2.68826 10.5834L1.92962 9.83743C1.43206 9.34882 1.18291 9.10414 1.15158 8.85574C1.12805 8.67117 1.17728 8.4847 1.28883 8.3358C1.43952 8.13439 1.77819 8.03965 2.45552 7.85092C2.89266 7.72933 3.11122 7.66816 3.29399 7.55328C3.43323 7.46576 3.55458 7.35809 3.65802 7.23028C3.79304 7.06318 3.87733 6.8558 4.04517 6.44105L4.08769 6.33512C4.67999 4.87303 4.97614 4.14124 5.54083 3.90328C5.72508 3.82495 5.92351 3.78467 6.12343 3.78467C6.73811 3.78467 7.30429 4.34041 8.43667 5.45414Z" fill="currentColort"/>
<path fill-rule="evenodd" clip-rule="evenodd" d="M15.4605 12.1059C15.4587 12.2516 15.3993 12.3908 15.2954 12.4929C15.1914 12.5951 15.0512 12.652 14.9055 12.6512H8.2425C8.09673 12.652 7.95657 12.5951 7.8526 12.4929C7.74862 12.3908 7.68927 12.2516 7.6875 12.1059C7.6875 11.8045 7.93591 11.5598 8.2425 11.5598H14.9055C15.2113 11.5598 15.4605 11.8045 15.4605 12.1059Z" fill="currentColor"/>
</svg>
