<svg xmlns="http://www.w3.org/2000/svg" width="9" height="7" viewBox="0 0 9 7" fill="none">
  <path d="M0.0234375 7L1.21875 3.44409C0.8125 3.3099 0.507812 3.07881 0.304688 2.7508C0.101562 2.42279 0 2.08733 0 1.74441C0 1.26731 0.179688 0.857295 0.539063 0.514377C0.914062 0.171459 1.35156 0 1.85156 0C2.42969 0 2.88281 0.186368 3.21094 0.559105C3.55469 0.916932 3.72656 1.34931 3.72656 1.85623C3.72656 2.19915 3.69531 2.5197 3.63281 2.81789C3.57031 3.10117 3.46875 3.43663 3.32812 3.82428L2.27344 7H0.0234375ZM5.29688 7L6.49219 3.44409C6.08594 3.3099 5.78125 3.07881 5.57812 2.7508C5.375 2.42279 5.27344 2.08733 5.27344 1.74441C5.27344 1.26731 5.45313 0.857295 5.8125 0.514377C6.1875 0.171459 6.625 0 7.125 0C7.70313 0 8.15625 0.186368 8.48438 0.559105C8.82812 0.916932 9 1.34931 9 1.85623C9 2.19915 8.96875 2.5197 8.90625 2.81789C8.84375 3.10117 8.74219 3.43663 8.60156 3.82428L7.54688 7H5.29688Z" fill="#7086FF"/>
</svg>