<svg width="20" height="22" viewBox="0 0 20 22" fill="none" xmlns="http://www.w3.org/2000/svg">
<path d="M11.3111 19.9507L11.3111 5.22857L17.743 11.6604C18.257 12.1745 19.1005 12.1745 19.6146 11.6604C19.7367 11.5385 19.8337 11.3937 19.8998 11.2342C19.966 11.0748 20 10.9039 20 10.7312C20 10.5586 19.966 10.3877 19.8998 10.2283C19.8337 10.0688 19.7367 9.92398 19.6146 9.80204L10.9289 1.1164C10.807 0.994216 10.6621 0.89728 10.5027 0.83114C10.3433 0.765001 10.1723 0.730957 9.99972 0.730957C9.8271 0.730957 9.65618 0.765001 9.49674 0.83114C9.33729 0.89728 9.19246 0.994216 9.07053 1.1164L0.384882 9.80204C0.262859 9.92407 0.166067 10.0689 0.100027 10.2284C0.0339885 10.3878 -4.29583e-07 10.5587 -4.37126e-07 10.7312C-4.44669e-07 10.9038 0.0339885 11.0747 0.100027 11.2341C0.166067 11.3935 0.262859 11.5384 0.384881 11.6604C0.506904 11.7825 0.651769 11.8792 0.811201 11.9453C0.970632 12.0113 1.14151 12.0453 1.31408 12.0453C1.48664 12.0453 1.65752 12.0113 1.81695 11.9453C1.97638 11.8792 2.12125 11.7825 2.24327 11.6604L8.67513 5.22857L8.67513 19.9507C8.67513 20.6756 9.26823 21.2687 9.99313 21.2687C10.718 21.2687 11.3111 20.6756 11.3111 19.9507Z" fill="#F8F8F8"/>
</svg>
