<svg xmlns="http://www.w3.org/2000/svg" width="9" height="7" viewBox="0 0 9 7" fill="none">
  <path d="M1.87013 7C1.29351 7 0.833766 6.81363 0.490909 6.44089C0.163636 6.06816 0 5.63578 0 5.14377C0 4.80085 0.0311688 4.48775 0.0935065 4.20447C0.171429 3.90628 0.272727 3.56337 0.397403 3.17572L1.44935 0H3.69351L2.5013 3.55591C2.90649 3.67519 3.21039 3.90628 3.41299 4.2492C3.61558 4.57721 3.71688 4.91267 3.71688 5.25559C3.71688 5.73269 3.52987 6.1427 3.15584 6.48562C2.7974 6.82854 2.36883 7 1.87013 7ZM7.15325 7C6.57662 7 6.11688 6.81363 5.77403 6.44089C5.44675 6.06816 5.28312 5.63578 5.28312 5.14377C5.28312 4.80085 5.31429 4.48775 5.37662 4.20447C5.45455 3.90628 5.55584 3.56337 5.68052 3.17572L6.73247 0H8.97662L7.78441 3.55591C8.18961 3.67519 8.49351 3.90628 8.6961 4.2492C8.8987 4.57721 9 4.91267 9 5.25559C9 5.73269 8.81299 6.1427 8.43896 6.48562C8.08052 6.82854 7.65195 7 7.15325 7Z" fill="#7086FF"/>
</svg>