<svg xmlns="http://www.w3.org/2000/svg" width="21" height="20" viewBox="0 0 21 20" fill="none">
  <path d="M2.99984 2.49984V1.6665C2.77882 1.6665 2.56686 1.7543 2.41058 1.91058C2.2543 2.06686 2.1665 2.27882 2.1665 2.49984H2.99984ZM15.744 11.9107L14.9848 11.5673C14.9151 11.7216 14.894 11.8935 14.9243 12.0601C14.9547 12.2267 15.0351 12.3801 15.1548 12.4998L15.744 11.9107ZM17.9998 14.1665L18.589 14.7557C18.7452 14.5994 18.833 14.3875 18.833 14.1665C18.833 13.9455 18.7452 13.7336 18.589 13.5773L17.9998 14.1665ZM14.6665 17.4998L14.0773 18.089C14.2336 18.2452 14.4455 18.333 14.6665 18.333C14.8875 18.333 15.0994 18.2452 15.2557 18.089L14.6665 17.4998ZM12.4107 15.244L12.9998 14.6548C12.88 14.5349 12.7265 14.4544 12.5597 14.4241C12.393 14.3937 12.2209 14.4149 12.0665 14.4848L12.4107 15.244ZM9.6665 1.6665H2.99984V3.33317H9.6665V1.6665ZM17.1665 9.1665C17.1665 8.18159 16.9725 7.20632 16.5956 6.29638C16.2187 5.38644 15.6662 4.55964 14.9698 3.8632C14.2734 3.16676 13.4466 2.61432 12.5366 2.23741C11.6267 1.8605 10.6514 1.6665 9.6665 1.6665V3.33317C11.2136 3.33317 12.6973 3.94775 13.7913 5.04171C14.8853 6.13568 15.4998 7.61941 15.4998 9.1665H17.1665ZM16.5032 12.254C16.9409 11.2836 17.167 10.2311 17.1665 9.1665H15.4998C15.5003 9.99398 15.3248 10.8129 14.9848 11.5673L16.5032 12.254ZM15.1548 12.4998L17.4107 14.7557L18.589 13.5773L16.3332 11.3215L15.1548 12.4998ZM17.4107 13.5773L14.0773 16.9107L15.2557 18.089L18.589 14.7557L17.4107 13.5773ZM15.2557 16.9107L12.9998 14.6548L11.8215 15.8332L14.0773 18.089L15.2557 16.9107ZM9.6665 16.6665C10.7311 16.667 11.7836 16.4409 12.754 16.0032L12.0665 14.4848C11.3118 14.8249 10.4943 15.0005 9.6665 14.9998V16.6665ZM2.1665 9.1665C2.1665 11.1556 2.95668 13.0633 4.3632 14.4698C5.76973 15.8763 7.67738 16.6665 9.6665 16.6665V14.9998C8.11941 14.9998 6.63568 14.3853 5.54171 13.2913C4.44775 12.1973 3.83317 10.7136 3.83317 9.1665H2.1665ZM2.1665 2.49984V9.1665H3.83317V2.49984H2.1665Z" fill="#FEFEF3"/>
  <path d="M9.66634 7.49967C8.74587 7.49967 7.99967 8.24587 7.99967 9.16634C7.99967 10.0868 8.74587 10.833 9.66634 10.833C10.5868 10.833 11.333 10.0868 11.333 9.16634C11.333 8.24587 10.5868 7.49967 9.66634 7.49967Z" fill="#FEFEF3"/>
  <path d="M3 2.5L9.66667 9.16667" stroke="#FEFEF3" stroke-width="1.2" stroke-linecap="round" stroke-linejoin="round"/>
</svg>